<svg width="30" height="30" viewBox="0 0 30 30" fill="none" xmlns="http://www.w3.org/2000/svg">
<path d="M15 30C11.1667 30 7.82611 28.7289 4.97833 26.1867C2.13056 23.6444 0.498889 20.4711 0.0833333 16.6667H3.5C3.88889 19.5556 5.17389 21.9444 7.355 23.8333C9.53611 25.7222 12.0844 26.6667 15 26.6667C18.25 26.6667 21.0072 25.5344 23.2717 23.27C25.5361 21.0056 26.6678 18.2489 26.6667 15C26.6667 11.75 25.5344 8.99278 23.27 6.72833C21.0056 4.46389 18.2489 3.33222 15 3.33333C13.0833 3.33333 11.2917 3.77778 9.625 4.66667C7.95833 5.55556 6.55556 6.77778 5.41667 8.33333H10V11.6667H0V1.66667H3.33333V5.58333C4.75 3.80556 6.47944 2.43056 8.52167 1.45833C10.5639 0.486111 12.7233 0 15 0C17.0833 0 19.035 0.396111 20.855 1.18833C22.675 1.98056 24.2583 3.04944 25.605 4.395C26.9517 5.74278 28.0211 7.32611 28.8133 9.145C29.6056 10.9639 30.0011 12.9156 30 15C30 17.0833 29.6039 19.035 28.8117 20.855C28.0194 22.675 26.9506 24.2583 25.605 25.605C24.2572 26.9517 22.6739 28.0211 20.855 28.8133C19.0361 29.6056 17.0844 30.0011 15 30ZM19.6667 22L13.3333 15.6667V6.66667H16.6667V14.3333L22 19.6667L19.6667 22Z" fill="#F8F8F8"/>
</svg>
