<svg width="94" height="94" viewBox="0 0 94 94" fill="none" xmlns="http://www.w3.org/2000/svg">
<path d="M80.7812 47C80.7812 47.3895 80.6265 47.7631 80.3511 48.0386C80.0756 48.314 79.702 48.4688 79.3125 48.4688H48.4688V79.3125C48.4688 79.702 48.314 80.0756 48.0386 80.3511C47.7631 80.6265 47.3895 80.7812 47 80.7812C46.6105 80.7812 46.2369 80.6265 45.9614 80.3511C45.686 80.0756 45.5312 79.702 45.5312 79.3125V48.4688H14.6875C14.298 48.4688 13.9244 48.314 13.6489 48.0386C13.3735 47.7631 13.2188 47.3895 13.2188 47C13.2188 46.6105 13.3735 46.2369 13.6489 45.9614C13.9244 45.686 14.298 45.5312 14.6875 45.5312H45.5312V14.6875C45.5312 14.298 45.686 13.9244 45.9614 13.6489C46.2369 13.3735 46.6105 13.2188 47 13.2188C47.3895 13.2188 47.7631 13.3735 48.0386 13.6489C48.314 13.9244 48.4688 14.298 48.4688 14.6875V45.5312H79.3125C79.702 45.5312 80.0756 45.686 80.3511 45.9614C80.6265 46.2369 80.7812 46.6105 80.7812 47Z" fill="black"/>
</svg>
