<svg width="39" height="39" viewBox="0 0 39 39" fill="none" xmlns="http://www.w3.org/2000/svg">
<path d="M6.49999 30.875L4.98874 30.2737C4.88075 30.5454 4.84807 30.8412 4.89414 31.13C4.9402 31.4187 5.06331 31.6896 5.25048 31.9142C5.43765 32.1388 5.68195 32.3088 5.95763 32.4061C6.2333 32.5035 6.53015 32.5247 6.81686 32.4675L6.49999 30.875ZM14.1472 29.354L14.9175 27.9224L14.4024 27.6461L13.8304 27.7599L14.1472 29.354ZM9.13899 24.2401L10.6502 24.8414L10.9151 24.1686L10.5966 23.5203L9.13899 24.2401ZM30.875 19.5C30.875 24.7748 26.2389 29.25 20.2637 29.25V32.5C27.8054 32.5 34.125 26.7898 34.125 19.5H30.875ZM9.65411 19.5C9.65411 14.2252 14.2919 9.75 20.2654 9.75V6.5C12.7237 6.5 6.40249 12.2102 6.40249 19.5H9.65411ZM20.2654 9.75C26.2389 9.75 30.875 14.2252 30.875 19.5H34.125C34.125 12.2102 27.807 6.5 20.2654 6.5V9.75ZM20.2637 29.25C18.3056 29.25 16.4824 28.7625 14.9175 27.9224L13.377 30.784C15.4957 31.9172 17.861 32.5068 20.2637 32.5V29.25ZM6.81686 32.4675L14.4641 30.9465L13.8304 27.7599L6.18311 29.2809L6.81686 32.4691V32.4675ZM10.5966 23.5203C9.97598 22.2709 9.65447 20.895 9.65411 19.5H6.40249C6.40249 21.45 6.86074 23.2992 7.67974 24.96L10.5966 23.5203ZM7.62936 23.6389L4.98874 30.2754L8.00799 31.4746L10.647 24.8398L7.62774 23.6389H7.62936Z" fill="#F8F8F8"/>
<path d="M14.625 21.125C15.5225 21.125 16.25 20.3975 16.25 19.5C16.25 18.6025 15.5225 17.875 14.625 17.875C13.7275 17.875 13 18.6025 13 19.5C13 20.3975 13.7275 21.125 14.625 21.125Z" fill="#F8F8F8"/>
<path d="M20.3125 21.125C21.21 21.125 21.9375 20.3975 21.9375 19.5C21.9375 18.6025 21.21 17.875 20.3125 17.875C19.415 17.875 18.6875 18.6025 18.6875 19.5C18.6875 20.3975 19.415 21.125 20.3125 21.125Z" fill="#F8F8F8"/>
<path d="M26 21.125C26.8975 21.125 27.625 20.3975 27.625 19.5C27.625 18.6025 26.8975 17.875 26 17.875C25.1025 17.875 24.375 18.6025 24.375 19.5C24.375 20.3975 25.1025 21.125 26 21.125Z" fill="#F8F8F8"/>
</svg>
