<svg width="30" height="30" viewBox="0 0 30 30" fill="none" xmlns="http://www.w3.org/2000/svg">
<path d="M25 8.75H13.75M17.5 21.25H6.25" stroke="#F8F8F8" stroke-width="2" stroke-linecap="round" stroke-linejoin="round"/>
<path d="M21.25 25C23.3211 25 25 23.3211 25 21.25C25 19.1789 23.3211 17.5 21.25 17.5C19.1789 17.5 17.5 19.1789 17.5 21.25C17.5 23.3211 19.1789 25 21.25 25Z" stroke="#F8F8F8" stroke-width="2" stroke-linecap="round" stroke-linejoin="round"/>
<path d="M8.75 12.5C10.8211 12.5 12.5 10.8211 12.5 8.75C12.5 6.67893 10.8211 5 8.75 5C6.67893 5 5 6.67893 5 8.75C5 10.8211 6.67893 12.5 8.75 12.5Z" stroke="#F8F8F8" stroke-width="2" stroke-linecap="round" stroke-linejoin="round"/>
</svg>
