<svg width="20" height="20" viewBox="0 0 20 20" fill="none" xmlns="http://www.w3.org/2000/svg">
<path fill-rule="evenodd" clip-rule="evenodd" d="M10 8.5C10.5304 8.5 11.0391 8.28929 11.4142 7.91421C11.7893 7.53914 12 7.03043 12 6.5C12 5.96957 11.7893 5.46086 11.4142 5.08579C11.0391 4.71071 10.5304 4.5 10 4.5C9.46957 4.5 8.96086 4.71071 8.58579 5.08579C8.21071 5.46086 8 5.96957 8 6.5C8 7.03043 8.21071 7.53914 8.58579 7.91421C8.96086 8.28929 9.46957 8.5 10 8.5ZM10 5.5C10.2652 5.5 10.5196 5.60536 10.7071 5.79289C10.8946 5.98043 11 6.23478 11 6.5C11 6.76522 10.8946 7.01957 10.7071 7.20711C10.5196 7.39464 10.2652 7.5 10 7.5C9.73478 7.5 9.48043 7.39464 9.29289 7.20711C9.10536 7.01957 9 6.76522 9 6.5C9 6.23478 9.10536 5.98043 9.29289 5.79289C9.48043 5.60536 9.73478 5.5 10 5.5Z" fill="#F8F8F8"/>
<path fill-rule="evenodd" clip-rule="evenodd" d="M5.5 6.286C5.5 8.959 8.153 13.5 10 13.5C11.848 13.5 14.5 8.959 14.5 6.286C14.5 3.65 12.493 1.5 10 1.5C7.507 1.5 5.5 3.65 5.5 6.286ZM13.5 6.286C13.5 8.479 11.152 12.5 10 12.5C8.849 12.5 6.5 8.48 6.5 6.286C6.5 4.187 8.075 2.5 10 2.5C11.925 2.5 13.5 4.187 13.5 6.286Z" fill="#F8F8F8"/>
<path d="M13.4348 9.13994C13.3152 9.08849 13.2204 8.99245 13.1706 8.87222C13.1207 8.75199 13.1197 8.61705 13.1677 8.49608C13.2158 8.37511 13.3091 8.27765 13.4279 8.2244C13.5466 8.17116 13.6815 8.16633 13.8038 8.21094C14.2104 8.37223 14.5769 8.62049 14.8775 8.93834C15.178 9.25619 15.4054 9.63593 15.5438 10.0509L16.8778 14.0509C17.0282 14.5021 17.0692 14.9825 16.9975 15.4526C16.9257 15.9227 16.7432 16.3691 16.4651 16.7548C16.1869 17.1405 15.821 17.4545 15.3976 17.671C14.9742 17.8875 14.5053 18.0003 14.0298 17.9999H5.96978C5.49439 17.9999 5.02581 17.887 4.60265 17.6703C4.17949 17.4537 3.81387 17.1396 3.53592 16.754C3.25797 16.3683 3.07566 15.9221 3.004 15.4521C2.93235 14.9822 2.9734 14.5019 3.12378 14.0509L4.45678 10.0509C4.59754 9.62848 4.83057 9.24266 5.13897 8.92146C5.44736 8.60026 5.8234 8.35175 6.23978 8.19394C6.30118 8.17063 6.36656 8.15964 6.4322 8.1616C6.49784 8.16356 6.56245 8.17843 6.62234 8.20535C6.68224 8.23228 6.73624 8.27075 6.78127 8.31855C6.8263 8.36635 6.86147 8.42255 6.88478 8.48394C6.90809 8.54533 6.91908 8.61071 6.91712 8.67635C6.91516 8.74199 6.9003 8.80661 6.87337 8.8665C6.84644 8.92639 6.80798 8.9804 6.76018 9.02543C6.71238 9.07046 6.65618 9.10563 6.59478 9.12894C6.31684 9.23408 6.06582 9.39984 5.85998 9.61416C5.65413 9.82848 5.49863 10.086 5.40478 10.3679L4.07178 14.3679C3.97164 14.6686 3.94438 14.9888 3.99225 15.302C4.04011 15.6153 4.16174 15.9127 4.3471 16.1698C4.53246 16.4268 4.77624 16.6361 5.05837 16.7804C5.34049 16.9248 5.65288 17 5.96978 16.9999H14.0318C14.3487 16.9999 14.6611 16.9246 14.9432 16.7801C15.2253 16.6356 15.469 16.4262 15.6543 16.1691C15.8396 15.9119 15.9611 15.6144 16.0088 15.3011C16.0565 14.9878 16.0291 14.6676 15.9288 14.3669L14.5968 10.3669C14.5045 10.0904 14.3528 9.83736 14.1524 9.62558C13.9521 9.4138 13.7078 9.24839 13.4368 9.14094L13.4348 9.13994Z" fill="#F8F8F8"/>
</svg>
