<svg width="90" height="90" viewBox="0 0 90 90" fill="none" xmlns="http://www.w3.org/2000/svg">
<path d="M45 63.75C43.0109 63.75 41.1032 62.9598 39.6967 61.5533C38.2902 60.1468 37.5 58.2391 37.5 56.25C37.5 52.0875 40.8375 48.75 45 48.75C46.9891 48.75 48.8968 49.5402 50.3033 50.9467C51.7098 52.3532 52.5 54.2609 52.5 56.25C52.5 58.2391 51.7098 60.1468 50.3033 61.5533C48.8968 62.9598 46.9891 63.75 45 63.75ZM67.5 75V37.5H22.5V75H67.5ZM67.5 30C69.4891 30 71.3968 30.7902 72.8033 32.1967C74.2098 33.6032 75 35.5109 75 37.5V75C75 76.9891 74.2098 78.8968 72.8033 80.3033C71.3968 81.7098 69.4891 82.5 67.5 82.5H22.5C20.5109 82.5 18.6032 81.7098 17.1967 80.3033C15.7902 78.8968 15 76.9891 15 75V37.5C15 33.3375 18.3375 30 22.5 30H26.25V22.5C26.25 17.5272 28.2254 12.7581 31.7417 9.24175C35.2581 5.72544 40.0272 3.75 45 3.75C47.4623 3.75 49.9005 4.23498 52.1753 5.17726C54.4502 6.11953 56.5172 7.50065 58.2583 9.24175C59.9994 10.9828 61.3805 13.0498 62.3227 15.3247C63.265 17.5995 63.75 20.0377 63.75 22.5V30H67.5ZM45 11.25C42.0163 11.25 39.1548 12.4353 37.045 14.545C34.9353 16.6548 33.75 19.5163 33.75 22.5V30H56.25V22.5C56.25 19.5163 55.0647 16.6548 52.955 14.545C50.8452 12.4353 47.9837 11.25 45 11.25Z" fill="black"/>
</svg>
