<svg width="90" height="90" viewBox="0 0 90 90" fill="none" xmlns="http://www.w3.org/2000/svg">
<path d="M32.25 84.375L25.125 72.375L11.625 69.375L12.9375 55.5L3.75 45L12.9375 34.5L11.625 20.625L25.125 17.625L32.25 5.625L45 11.0625L57.75 5.625L64.875 17.625L78.375 20.625L77.0625 34.5L86.25 45L77.0625 55.5L78.375 69.375L64.875 72.375L57.75 84.375L45 78.9375L32.25 84.375ZM35.4375 74.8125L45 70.6875L54.75 74.8125L60 65.8125L70.3125 63.375L69.375 52.875L76.3125 45L69.375 36.9375L70.3125 26.4375L60 24.1875L54.5625 15.1875L45 19.3125L35.25 15.1875L30 24.1875L19.6875 26.4375L20.625 36.9375L13.6875 45L20.625 52.875L19.6875 63.5625L30 65.8125L35.4375 74.8125ZM41.0625 58.3125L62.25 37.125L57 31.6875L41.0625 47.625L33 39.75L27.75 45L41.0625 58.3125Z" fill="black"/>
</svg>
