<svg width="33" height="43" viewBox="0 0 33 43" fill="none" xmlns="http://www.w3.org/2000/svg">
<path d="M30.6247 0.6875H22.8122C22.3978 0.6875 22.0003 0.85212 21.7073 1.14515C21.4143 1.43817 21.2497 1.8356 21.2497 2.25C21.2497 2.6644 21.4143 3.06183 21.7073 3.35485C22.0003 3.64788 22.3978 3.8125 22.8122 3.8125H26.8532L21.9411 8.72461C20.4987 7.38045 18.7589 6.39653 16.8637 5.85321C14.9684 5.30989 12.9715 5.22258 11.0361 5.59841C9.10071 5.97424 7.28163 6.80256 5.72748 8.0157C4.17333 9.22885 2.92818 10.7924 2.09373 12.5787C1.25928 14.365 0.859196 16.3233 0.926158 18.2937C0.993119 20.2642 1.52523 22.1908 2.47902 23.9163C3.43281 25.6419 4.78123 27.1173 6.41416 28.2221C8.04708 29.327 9.91819 30.0299 11.8747 30.2734V33.5H7.18716C6.77276 33.5 6.37533 33.6646 6.08231 33.9576C5.78928 34.2507 5.62466 34.6481 5.62466 35.0625C5.62466 35.4769 5.78928 35.8743 6.08231 36.1674C6.37533 36.4604 6.77276 36.625 7.18716 36.625H11.8747V41.3125C11.8747 41.7269 12.0393 42.1243 12.3323 42.4174C12.6253 42.7104 13.0228 42.875 13.4372 42.875C13.8516 42.875 14.249 42.7104 14.542 42.4174C14.835 42.1243 14.9997 41.7269 14.9997 41.3125V36.625H19.6872C20.1016 36.625 20.499 36.4604 20.792 36.1674C21.085 35.8743 21.2497 35.4769 21.2497 35.0625C21.2497 34.6481 21.085 34.2507 20.792 33.9576C20.499 33.6646 20.1016 33.5 19.6872 33.5H14.9997V30.2734C17.094 30.0118 19.0879 29.2235 20.7949 27.9821C22.5019 26.7407 23.8663 25.0868 24.7606 23.1749C25.6549 21.2631 26.0498 19.1557 25.9085 17.0498C25.7673 14.9438 25.0944 12.9081 23.9528 11.1328L29.0622 6.02148V10.0625C29.0622 10.4769 29.2268 10.8743 29.5198 11.1674C29.8128 11.4604 30.2103 11.625 30.6247 11.625C31.0391 11.625 31.4365 11.4604 31.7295 11.1674C32.0225 10.8743 32.1872 10.4769 32.1872 10.0625V2.25C32.1872 1.8356 32.0225 1.43817 31.7295 1.14515C31.4365 0.85212 31.0391 0.6875 30.6247 0.6875ZM13.4372 27.25C11.583 27.25 9.7704 26.7002 8.22869 25.67C6.68698 24.6399 5.48536 23.1757 4.77579 21.4627C4.06622 19.7496 3.88056 17.8646 4.2423 16.046C4.60403 14.2275 5.49692 12.557 6.80803 11.2459C8.11915 9.93476 9.78962 9.04187 11.6082 8.68014C13.4268 8.3184 15.3118 8.50406 17.0248 9.21363C18.7379 9.9232 20.202 11.1248 21.2322 12.6665C22.2623 14.2082 22.8122 16.0208 22.8122 17.875C22.8096 20.3606 21.821 22.7437 20.0634 24.5013C18.3058 26.2589 15.9228 27.2474 13.4372 27.25Z" fill="#F8F8F8"/>
</svg>
