<svg width="32" height="28" viewBox="0 0 32 28" fill="none" xmlns="http://www.w3.org/2000/svg">
<path d="M2.00001 26.25L0.372513 25.6025C0.256224 25.8951 0.221029 26.2136 0.270639 26.5246C0.320249 26.8355 0.452825 27.1273 0.654393 27.3692C0.85596 27.611 1.11905 27.7941 1.41593 27.8989C1.71282 28.0038 2.03249 28.0266 2.34126 27.965L2.00001 26.25ZM10.2355 24.612L11.065 23.0702L10.5103 22.7727L9.89426 22.8953L10.2355 24.612ZM4.84201 19.1047L6.46951 19.7522L6.75476 19.0277L6.41176 18.3295L4.84201 19.1047ZM28.25 14C28.25 19.6805 23.2573 24.5 16.8225 24.5V28C24.9443 28 31.75 21.8505 31.75 14H28.25ZM5.39676 14C5.39676 8.3195 10.3913 3.5 16.8243 3.5V0C8.70251 0 1.89501 6.1495 1.89501 14H5.39676ZM16.8243 3.5C23.2573 3.5 28.25 8.3195 28.25 14H31.75C31.75 6.1495 24.946 0 16.8243 0V3.5ZM16.8225 24.5C14.7138 24.5 12.7503 23.975 11.065 23.0702L9.40601 26.152C11.6877 27.3724 14.2349 28.0074 16.8225 28V24.5ZM2.34126 27.965L10.5768 26.327L9.89426 22.8953L1.65876 24.5332L2.34126 27.9667V27.965ZM6.41176 18.3295C5.74339 16.9841 5.39715 15.5023 5.39676 14H1.89501C1.89501 16.1 2.38851 18.0915 3.27051 19.88L6.41176 18.3295ZM3.21626 18.4572L0.372513 25.6042L3.62401 26.8957L6.46601 19.7505L3.21451 18.4572H3.21626Z" fill="#F8F8F8"/>
<path d="M10.75 15.75C11.7165 15.75 12.5 14.9665 12.5 14C12.5 13.0335 11.7165 12.25 10.75 12.25C9.7835 12.25 9 13.0335 9 14C9 14.9665 9.7835 15.75 10.75 15.75Z" fill="#F8F8F8"/>
<path d="M16.875 15.75C17.8415 15.75 18.625 14.9665 18.625 14C18.625 13.0335 17.8415 12.25 16.875 12.25C15.9085 12.25 15.125 13.0335 15.125 14C15.125 14.9665 15.9085 15.75 16.875 15.75Z" fill="#F8F8F8"/>
<path d="M23 15.75C23.9665 15.75 24.75 14.9665 24.75 14C24.75 13.0335 23.9665 12.25 23 12.25C22.0335 12.25 21.25 13.0335 21.25 14C21.25 14.9665 22.0335 15.75 23 15.75Z" fill="#F8F8F8"/>
</svg>
