<svg width="20" height="20" viewBox="0 0 20 20" fill="none" xmlns="http://www.w3.org/2000/svg">
<path d="M15.7649 9.74466C15.5514 9.46132 15.2915 9.21576 15.0501 8.9702C14.428 8.40352 13.7225 7.99739 13.1283 7.40238C11.745 6.02345 11.4386 3.74727 12.3206 2C11.4386 2.21723 10.668 2.70835 10.0089 3.2467C7.60429 5.2112 6.65732 8.67741 7.78997 11.6525C7.82711 11.7469 7.86424 11.8414 7.86424 11.9642C7.86424 12.172 7.72498 12.3609 7.5393 12.4364C7.32577 12.5309 7.10296 12.4742 6.92656 12.3231C6.87355 12.2785 6.82943 12.224 6.79658 12.1625C5.74749 10.8119 5.58038 8.87575 6.28596 7.32682C4.73553 8.6113 3.89069 10.7836 4.01138 12.8331C4.06708 13.3053 4.12279 13.7776 4.28062 14.2498C4.41059 14.8165 4.66126 15.3832 4.93978 15.8837C5.94245 17.5177 7.67856 18.6888 9.54465 18.9249C11.5314 19.1799 13.6575 18.8116 15.18 17.4138C16.879 15.8459 17.4732 13.3337 16.6005 11.1803L16.4798 10.9347C16.2848 10.5002 15.7649 9.74466 15.7649 9.74466ZM12.8312 15.6948C12.5712 15.9215 12.1442 16.1671 11.81 16.2615C10.7701 16.6393 9.73033 16.1104 9.11759 15.4871C10.2224 15.2226 10.8815 14.3915 11.0765 13.5509C11.2343 12.7953 10.9373 12.172 10.8166 11.4447C10.7052 10.7458 10.7237 10.1508 10.9744 9.4991C11.1508 9.858 11.3365 10.2169 11.5593 10.5002C12.2742 11.4447 13.3975 11.8603 13.6389 13.1448C13.676 13.277 13.6946 13.4092 13.6946 13.5509C13.7225 14.3254 13.3882 15.1754 12.8312 15.6948Z" fill="#F8F8F8"/>
</svg>
