<svg width="21" height="24" viewBox="0 0 21 24" fill="none" xmlns="http://www.w3.org/2000/svg">
<path d="M9.4735 9.82281L5.5835 13.8718L1.6935 9.82281C0.924568 9.02146 0.401 8.00062 0.188991 6.88934C-0.0230187 5.77806 0.0860503 4.62626 0.502408 3.57955C0.918766 2.53283 1.62372 1.63822 2.52813 1.00881C3.43254 0.379399 4.49581 0.043457 5.5835 0.043457C6.67118 0.043457 7.73445 0.379399 8.63886 1.00881C9.54328 1.63822 10.2482 2.53283 10.6646 3.57955C11.0809 4.62626 11.19 5.77806 10.978 6.88934C10.766 8.00062 10.2424 9.02146 9.4735 9.82281ZM5.5835 7.85406C6.11393 7.85406 6.62264 7.63456 6.99771 7.24386C7.37278 6.85316 7.5835 6.32326 7.5835 5.77072C7.5835 5.21819 7.37278 4.68828 6.99771 4.29758C6.62264 3.90688 6.11393 3.68739 5.5835 3.68739C5.05306 3.68739 4.54436 3.90688 4.16928 4.29758C3.79421 4.68828 3.5835 5.21819 3.5835 5.77072C3.5835 6.32326 3.79421 6.85316 4.16928 7.24386C4.54436 7.63456 5.05306 7.85406 5.5835 7.85406ZM18.4735 19.1978L14.5835 23.2478L10.6935 19.1968C9.92457 18.3954 9.401 17.3746 9.18899 16.2633C8.97698 15.152 9.08605 14.0002 9.50241 12.9535C9.91876 11.9068 10.6237 11.0122 11.5281 10.3828C12.4325 9.75336 13.4958 9.41742 14.5835 9.41742C15.6712 9.41742 16.7344 9.75336 17.6389 10.3828C18.5433 11.0122 19.2482 11.9068 19.6646 12.9535C20.0809 14.0002 20.19 15.152 19.978 16.2633C19.766 17.3746 19.2424 18.3965 18.4735 19.1978ZM14.5835 17.2291C15.1139 17.2291 15.6226 17.0096 15.9977 16.6189C16.3728 16.2282 16.5835 15.6983 16.5835 15.1457C16.5835 14.5932 16.3728 14.0633 15.9977 13.6726C15.6226 13.2819 15.1139 13.0624 14.5835 13.0624C14.0531 13.0624 13.5444 13.2819 13.1693 13.6726C12.7942 14.0633 12.5835 14.5932 12.5835 15.1457C12.5835 15.6983 12.7942 16.2282 13.1693 16.6189C13.5444 17.0096 14.0531 17.2291 14.5835 17.2291Z" fill="#F8F8F8"/>
</svg>
