<svg width="33" height="33" viewBox="0 0 33 33" fill="none" xmlns="http://www.w3.org/2000/svg">
<path fill-rule="evenodd" clip-rule="evenodd" d="M22.3333 12.1248C22.3333 13.6719 21.7187 15.1557 20.6247 16.2496C19.5308 17.3436 18.0471 17.9582 16.5 17.9582C14.9529 17.9582 13.4691 17.3436 12.3752 16.2496C11.2812 15.1557 10.6666 13.6719 10.6666 12.1248C10.6666 10.5777 11.2812 9.09401 12.3752 8.00005C13.4691 6.90609 14.9529 6.2915 16.5 6.2915C18.0471 6.2915 19.5308 6.90609 20.6247 8.00005C21.7187 9.09401 22.3333 10.5777 22.3333 12.1248ZM19.4166 12.1248C19.4166 12.8984 19.1093 13.6403 18.5624 14.1872C18.0154 14.7342 17.2735 15.0415 16.5 15.0415C15.7264 15.0415 14.9845 14.7342 14.4376 14.1872C13.8906 13.6403 13.5833 12.8984 13.5833 12.1248C13.5833 11.3513 13.8906 10.6094 14.4376 10.0624C14.9845 9.51546 15.7264 9.20817 16.5 9.20817C17.2735 9.20817 18.0154 9.51546 18.5624 10.0624C19.1093 10.6094 19.4166 11.3513 19.4166 12.1248Z" fill="#F8F8F8"/>
<path fill-rule="evenodd" clip-rule="evenodd" d="M16.5 0.458252C7.6406 0.458252 0.458313 7.64054 0.458313 16.4999C0.458313 25.3593 7.6406 32.5416 16.5 32.5416C25.3594 32.5416 32.5416 25.3593 32.5416 16.4999C32.5416 7.64054 25.3594 0.458252 16.5 0.458252ZM3.37498 16.4999C3.37498 19.5478 4.41477 22.3537 6.15748 24.582C7.38136 22.9748 8.96025 21.6723 10.7708 20.7762C12.5814 19.8802 14.5746 19.4148 16.5948 19.4166C18.5888 19.4147 20.5569 19.868 22.3493 20.7419C24.1416 21.6158 25.7108 22.8873 26.9373 24.4595C28.2008 22.8023 29.0516 20.8679 29.4192 18.8166C29.7868 16.7653 29.6606 14.6559 29.0511 12.663C28.4416 10.6701 27.3663 8.85103 25.9142 7.35622C24.4621 5.86142 22.6749 4.73388 20.7005 4.06691C18.7261 3.39994 16.6213 3.21271 14.5602 3.52071C12.4991 3.82871 10.5409 4.62309 8.84777 5.83812C7.15461 7.05315 5.77512 8.6539 4.82344 10.5079C3.87176 12.3619 3.37524 14.4159 3.37498 16.4999ZM16.5 29.6249C13.487 29.6294 10.565 28.5929 8.22831 26.6908C9.16884 25.3443 10.4207 24.245 11.8773 23.4863C13.334 22.7277 14.9524 22.3321 16.5948 22.3333C18.2167 22.332 19.8155 22.7176 21.2584 23.4582C22.7013 24.1989 23.9468 25.273 24.8912 26.5916C22.5365 28.5555 19.5662 29.6292 16.5 29.6249Z" fill="#F8F8F8"/>
</svg>
