<svg width="31" height="31" viewBox="0 0 31 31" fill="none" xmlns="http://www.w3.org/2000/svg">
<path d="M11.4896 30.0834L10.9063 25.4167C10.5903 25.2952 10.2923 25.1494 10.0123 24.9792C9.73229 24.8091 9.4591 24.6268 9.19271 24.4324L4.85417 26.2553L0.84375 19.3282L4.59896 16.4845C4.57465 16.3143 4.5625 16.15 4.5625 15.9915V15.0086C4.5625 14.8502 4.57465 14.6858 4.59896 14.5157L0.84375 11.672L4.85417 4.74487L9.19271 6.56779C9.46007 6.37334 9.73958 6.19105 10.0313 6.02091C10.3229 5.85078 10.6146 5.70494 10.9063 5.58341L11.4896 0.916748H19.5104L20.0938 5.58341C20.4097 5.70494 20.7077 5.85078 20.9877 6.02091C21.2677 6.19105 21.5409 6.37334 21.8073 6.56779L26.1458 4.74487L30.1562 11.672L26.401 14.5157C26.4253 14.6858 26.4375 14.8502 26.4375 15.0086V15.9915C26.4375 16.15 26.4132 16.3143 26.3646 16.4845L30.1198 19.3282L26.1094 26.2553L21.8073 24.4324C21.5399 24.6268 21.2604 24.8091 20.9688 24.9792C20.6771 25.1494 20.3854 25.2952 20.0938 25.4167L19.5104 30.0834H11.4896ZM15.5729 20.6042C16.9826 20.6042 18.1858 20.106 19.1823 19.1095C20.1788 18.1129 20.6771 16.9098 20.6771 15.5001C20.6771 14.0904 20.1788 12.8872 19.1823 11.8907C18.1858 10.8942 16.9826 10.3959 15.5729 10.3959C14.1389 10.3959 12.9294 10.8942 11.9446 11.8907C10.9597 12.8872 10.4678 14.0904 10.4688 15.5001C10.4688 16.9098 10.9607 18.1129 11.9446 19.1095C12.9285 20.106 14.1379 20.6042 15.5729 20.6042ZM15.5729 17.6876C14.9653 17.6876 14.4485 17.4747 14.0227 17.0488C13.5969 16.623 13.3844 16.1067 13.3854 15.5001C13.3854 14.8924 13.5983 14.3757 14.0242 13.9499C14.45 13.524 14.9663 13.3116 15.5729 13.3126C16.1806 13.3126 16.6973 13.5255 17.1231 13.9513C17.549 14.3772 17.7614 14.8934 17.7604 15.5001C17.7604 16.1077 17.5475 16.6245 17.1217 17.0503C16.6958 17.4761 16.1796 17.6886 15.5729 17.6876ZM14.0417 27.1667H16.9219L17.4323 23.3022C18.1858 23.1077 18.8848 22.8219 19.5294 22.4447C20.174 22.0674 20.7631 21.612 21.2969 21.0782L24.9062 22.573L26.3281 20.0938L23.1927 17.724C23.3142 17.3838 23.3993 17.0255 23.4479 16.6492C23.4965 16.273 23.5208 15.8899 23.5208 15.5001C23.5208 15.1112 23.4965 14.7286 23.4479 14.3524C23.3993 13.9761 23.3142 13.6174 23.1927 13.2761L26.3281 10.9063L24.9062 8.42716L21.2969 9.95841C20.7622 9.39939 20.173 8.93175 19.5294 8.5555C18.8858 8.17925 18.1867 7.89341 17.4323 7.698L16.9583 3.83341H14.0781L13.5677 7.698C12.8142 7.89244 12.1157 8.17828 11.4721 8.5555C10.8285 8.93272 10.2388 9.38821 9.70312 9.92196L6.09375 8.42716L4.67187 10.9063L7.80729 13.2397C7.68576 13.6042 7.6007 13.9688 7.55208 14.3334C7.50347 14.698 7.47917 15.0869 7.47917 15.5001C7.47917 15.889 7.50347 16.2657 7.55208 16.6303C7.6007 16.9949 7.68576 17.3595 7.80729 17.724L4.67187 20.0938L6.09375 22.573L9.70312 21.0417C10.2378 21.6008 10.8275 22.0689 11.4721 22.4461C12.1167 22.8233 12.8152 23.1087 13.5677 23.3022L14.0417 27.1667Z" fill="#F8F8F8"/>
</svg>
