<svg width="20" height="20" viewBox="0 0 20 20" fill="none" xmlns="http://www.w3.org/2000/svg">
<path d="M9.49169 8.65832L6.25002 11.8975L3.00836 8.65832C2.36758 8.01724 1.93127 7.20057 1.7546 6.31154C1.57792 5.42252 1.66882 4.50108 2.01578 3.66371C2.36275 2.82634 2.9502 2.11065 3.70388 1.60712C4.45756 1.10359 5.34362 0.834839 6.25002 0.834839C7.15643 0.834839 8.04248 1.10359 8.79616 1.60712C9.54984 2.11065 10.1373 2.82634 10.4843 3.66371C10.8312 4.50108 10.9221 5.42252 10.7454 6.31154C10.5688 7.20057 10.1325 8.01724 9.49169 8.65832ZM6.25002 7.08332C6.69205 7.08332 7.11597 6.90772 7.42853 6.59516C7.74109 6.2826 7.91669 5.85868 7.91669 5.41665C7.91669 4.97462 7.74109 4.5507 7.42853 4.23814C7.11597 3.92558 6.69205 3.74998 6.25002 3.74998C5.80799 3.74998 5.38407 3.92558 5.07151 4.23814C4.75895 4.5507 4.58336 4.97462 4.58336 5.41665C4.58336 5.85868 4.75895 6.2826 5.07151 6.59516C5.38407 6.90772 5.80799 7.08332 6.25002 7.08332ZM16.9917 16.1583L13.75 19.3983L10.5084 16.1575C9.86758 15.5164 9.43127 14.6997 9.2546 13.8107C9.07793 12.9217 9.16882 12.0002 9.51578 11.1629C9.86275 10.3255 10.4502 9.60982 11.2039 9.10629C11.9576 8.60276 12.8436 8.33401 13.75 8.33401C14.6564 8.33401 15.5425 8.60276 16.2962 9.10629C17.0498 9.60982 17.6373 10.3255 17.9843 11.1629C18.3312 12.0002 18.4221 12.9217 18.2454 13.8107C18.0688 14.6997 17.6325 15.5172 16.9917 16.1583ZM13.75 14.5833C14.1921 14.5833 14.616 14.4077 14.9285 14.0952C15.2411 13.7826 15.4167 13.3587 15.4167 12.9167C15.4167 12.4746 15.2411 12.0507 14.9285 11.7381C14.616 11.4256 14.1921 11.25 13.75 11.25C13.308 11.25 12.8841 11.4256 12.5715 11.7381C12.259 12.0507 12.0834 12.4746 12.0834 12.9167C12.0834 13.3587 12.259 13.7826 12.5715 14.0952C12.8841 14.4077 13.308 14.5833 13.75 14.5833Z" fill="#C3C8D3"/>
</svg>
