<svg width="20" height="20" viewBox="0 0 20 20" fill="none" xmlns="http://www.w3.org/2000/svg">
<path fill-rule="evenodd" clip-rule="evenodd" d="M15.625 7.4998C15.6276 8.70506 15.2404 9.87887 14.5213 10.846L10 16.8748L5.47875 10.846C4.94938 10.1308 4.59724 9.30026 4.45124 8.42253C4.30524 7.54479 4.36955 6.64493 4.63889 5.79688C4.90824 4.94882 5.37492 4.17676 6.00062 3.54412C6.62632 2.91147 7.39318 2.43628 8.23821 2.15759C9.08324 1.8789 9.98232 1.80465 10.8616 1.94095C11.7409 2.07725 12.5753 2.4202 13.2963 2.94164C14.0173 3.46307 14.6044 4.14812 15.0092 4.9405C15.414 5.73288 15.625 6.61 15.625 7.4998ZM17.5 7.4998C17.5 9.1748 16.9513 10.7198 16.025 11.9673L11.1713 18.4373L10 19.9998L8.8275 18.4373L3.975 11.9673C3.26836 11.0141 2.79797 9.9068 2.60248 8.73643C2.407 7.56607 2.49199 6.36602 2.85049 5.23489C3.20898 4.10376 3.83074 3.07384 4.66468 2.22973C5.49863 1.38563 6.52095 0.751443 7.64765 0.379276C8.77436 0.00711007 9.97329 -0.0924125 11.1459 0.0888858C12.3186 0.270184 13.4315 0.727129 14.3932 1.42218C15.3549 2.11722 16.138 3.03054 16.678 4.08707C17.2181 5.14361 17.4998 6.31322 17.5 7.4998ZM10 9.9998C10.663 9.9998 11.2989 9.7364 11.7678 9.26756C12.2366 8.79872 12.5 8.16284 12.5 7.4998C12.5 6.83676 12.2366 6.20087 11.7678 5.73203C11.2989 5.26319 10.663 4.9998 10 4.9998C9.33696 4.9998 8.70107 5.26319 8.23223 5.73203C7.76339 6.20087 7.5 6.83676 7.5 7.4998C7.5 8.16284 7.76339 8.79872 8.23223 9.26756C8.70107 9.7364 9.33696 9.9998 10 9.9998Z" fill="#C3C8D3"/>
</svg>
