<svg width="18" height="22" viewBox="0 0 18 22" fill="none" xmlns="http://www.w3.org/2000/svg">
<path d="M15.6034 10.0667C15.3351 9.71667 15.0084 9.41333 14.7051 9.11C13.9234 8.41 13.0367 7.90833 12.2901 7.17333C10.5517 5.47 10.1667 2.65833 11.2751 0.5C10.1667 0.768333 9.19839 1.375 8.37006 2.04C5.34839 4.46667 4.15839 8.74833 5.58172 12.4233C5.62839 12.54 5.67506 12.6567 5.67506 12.8083C5.67506 13.065 5.50006 13.2983 5.26673 13.3917C4.99839 13.5083 4.71839 13.4383 4.49673 13.2517C4.43011 13.1966 4.37467 13.1293 4.33339 13.0533C3.01506 11.385 2.80506 8.99333 3.69172 7.08C1.74339 8.66667 0.681725 11.35 0.833391 13.8817C0.903391 14.465 0.973391 15.0483 1.17172 15.6317C1.33506 16.3317 1.65006 17.0317 2.00006 17.65C3.26006 19.6683 5.44172 21.115 7.78673 21.4067C10.2834 21.7217 12.9551 21.2667 14.8684 19.54C17.0034 17.6033 17.7501 14.5 16.6534 11.84L16.5017 11.5367C16.2567 11 15.6034 10.0667 15.6034 10.0667ZM11.9167 17.4167C11.5901 17.6967 11.0534 18 10.6334 18.1167C9.32673 18.5833 8.02006 17.93 7.25006 17.16C8.63839 16.8333 9.46672 15.8067 9.71172 14.7683C9.91006 13.835 9.53673 13.065 9.38506 12.1667C9.24506 11.3033 9.26839 10.5683 9.58339 9.76333C9.80506 10.2067 10.0384 10.65 10.3184 11C11.2167 12.1667 12.6284 12.68 12.9317 14.2667C12.9784 14.43 13.0017 14.5933 13.0017 14.7683C13.0367 15.725 12.6167 16.775 11.9167 17.4167Z" fill="#F8F8F8"/>
</svg>
