<svg width="21" height="24" viewBox="0 0 21 24" fill="none" xmlns="http://www.w3.org/2000/svg">
<path d="M9.86475 9.82281L5.81266 13.8718L1.76058 9.82281C0.959613 9.02146 0.41423 8.00062 0.193386 6.88934C-0.0274568 5.77806 0.0861568 4.62626 0.519863 3.57955C0.953569 2.53283 1.68789 1.63822 2.62999 1.00881C3.57209 0.379399 4.67966 0.043457 5.81266 0.043457C6.94567 0.043457 8.05324 0.379399 8.99534 1.00881C9.93744 1.63822 10.6718 2.53283 11.1055 3.57955C11.5392 4.62626 11.6528 5.77806 11.4319 6.88934C11.2111 8.00062 10.6657 9.02146 9.86475 9.82281ZM5.81266 7.85406C6.3652 7.85406 6.8951 7.63456 7.2858 7.24386C7.6765 6.85316 7.896 6.32326 7.896 5.77072C7.896 5.21819 7.6765 4.68828 7.2858 4.29758C6.8951 3.90688 6.3652 3.68739 5.81266 3.68739C5.26013 3.68739 4.73023 3.90688 4.33953 4.29758C3.94883 4.68828 3.72933 5.21819 3.72933 5.77072C3.72933 6.32326 3.94883 6.85316 4.33953 7.24386C4.73023 7.63456 5.26013 7.85406 5.81266 7.85406ZM19.2397 19.1978L15.1877 23.2478L11.1356 19.1968C10.3346 18.3954 9.78923 17.3746 9.56839 16.2633C9.34754 15.152 9.46116 14.0002 9.89486 12.9535C10.3286 11.9068 11.0629 11.0122 12.005 10.3828C12.9471 9.75336 14.0547 9.41742 15.1877 9.41742C16.3207 9.41742 17.4282 9.75336 18.3703 10.3828C19.3124 11.0122 20.0468 11.9068 20.4805 12.9535C20.9142 14.0002 21.0278 15.152 20.8069 16.2633C20.5861 17.3746 20.0407 18.3965 19.2397 19.1978ZM15.1877 17.2291C15.7402 17.2291 16.2701 17.0096 16.6608 16.6189C17.0515 16.2282 17.271 15.6983 17.271 15.1457C17.271 14.5932 17.0515 14.0633 16.6608 13.6726C16.2701 13.2819 15.7402 13.0624 15.1877 13.0624C14.6351 13.0624 14.1052 13.2819 13.7145 13.6726C13.3238 14.0633 13.1043 14.5932 13.1043 15.1457C13.1043 15.6983 13.3238 16.2282 13.7145 16.6189C14.1052 17.0096 14.6351 17.2291 15.1877 17.2291Z" fill="#F8F8F8"/>
</svg>
