<svg width="26" height="26" viewBox="0 0 26 26" fill="none" xmlns="http://www.w3.org/2000/svg">
<path fill-rule="evenodd" clip-rule="evenodd" d="M17.5001 9.33341C17.5001 10.5711 17.0084 11.7581 16.1332 12.6332C15.2581 13.5084 14.0711 14.0001 12.8334 14.0001C11.5957 14.0001 10.4088 13.5084 9.53358 12.6332C8.65841 11.7581 8.16675 10.5711 8.16675 9.33341C8.16675 8.09574 8.65841 6.90875 9.53358 6.03358C10.4088 5.15841 11.5957 4.66675 12.8334 4.66675C14.0711 4.66675 15.2581 5.15841 16.1332 6.03358C17.0084 6.90875 17.5001 8.09574 17.5001 9.33341ZM15.1667 9.33341C15.1667 9.95225 14.9209 10.5457 14.4833 10.9833C14.0457 11.4209 13.4523 11.6667 12.8334 11.6667C12.2146 11.6667 11.6211 11.4209 11.1835 10.9833C10.7459 10.5457 10.5001 9.95225 10.5001 9.33341C10.5001 8.71458 10.7459 8.12108 11.1835 7.6835C11.6211 7.24591 12.2146 7.00008 12.8334 7.00008C13.4523 7.00008 14.0457 7.24591 14.4833 7.6835C14.9209 8.12108 15.1667 8.71458 15.1667 9.33341Z" fill="#F8F8F8"/>
<path fill-rule="evenodd" clip-rule="evenodd" d="M12.8333 0C5.74583 0 0 5.74583 0 12.8333C0 19.9208 5.74583 25.6667 12.8333 25.6667C19.9208 25.6667 25.6667 19.9208 25.6667 12.8333C25.6667 5.74583 19.9208 0 12.8333 0ZM2.33333 12.8333C2.33333 15.2717 3.16517 17.5163 4.55933 19.299C5.53844 18.0132 6.80155 16.9712 8.25 16.2544C9.69846 15.5375 11.293 15.1653 12.9092 15.1667C14.5044 15.1652 16.0789 15.5278 17.5128 16.2269C18.9466 16.926 20.202 17.9432 21.1832 19.201C22.194 17.8752 22.8746 16.3278 23.1687 14.6867C23.4628 13.0456 23.3618 11.3581 22.8742 9.76381C22.3867 8.16951 21.5264 6.71422 20.3647 5.51838C19.203 4.32253 17.7733 3.4205 16.1938 2.88693C14.6143 2.35335 12.9304 2.20357 11.2815 2.44997C9.63261 2.69637 8.06609 3.33187 6.71156 4.3039C5.35704 5.27592 4.25345 6.55652 3.4921 8.03973C2.73076 9.52294 2.33354 11.1661 2.33333 12.8333ZM12.8333 23.3333C10.4229 23.337 8.08531 22.5077 6.216 20.986C6.96842 19.9089 7.96989 19.0294 9.13522 18.4225C10.3006 17.8155 11.5953 17.4991 12.9092 17.5C14.2067 17.499 15.4857 17.8075 16.6401 18.4C17.7944 18.9925 18.7908 19.8518 19.5463 20.9067C17.6625 22.4778 15.2863 23.3368 12.8333 23.3333Z" fill="#F8F8F8"/>
</svg>
