<svg width="20" height="20" viewBox="0 0 20 20" fill="none" xmlns="http://www.w3.org/2000/svg">
<path d="M2.5 10C2.5 10.9849 2.69399 11.9602 3.0709 12.8701C3.44781 13.7801 4.00026 14.6069 4.6967 15.3033C5.39314 15.9997 6.21993 16.5522 7.12987 16.9291C8.03982 17.306 9.01509 17.5 10 17.5C10.9849 17.5 11.9602 17.306 12.8701 16.9291C13.7801 16.5522 14.6069 15.9997 15.3033 15.3033C15.9997 14.6069 16.5522 13.7801 16.9291 12.8701C17.306 11.9602 17.5 10.9849 17.5 10C17.5 9.01509 17.306 8.03982 16.9291 7.12987C16.5522 6.21993 15.9997 5.39314 15.3033 4.6967C14.6069 4.00026 13.7801 3.44781 12.8701 3.0709C11.9602 2.69399 10.9849 2.5 10 2.5C9.01509 2.5 8.03982 2.69399 7.12987 3.0709C6.21993 3.44781 5.39314 4.00026 4.6967 4.6967C4.00026 5.39314 3.44781 6.21993 3.0709 7.12987C2.69399 8.03982 2.5 9.01509 2.5 10Z" stroke="#F8F8F8" stroke-width="1.66667" stroke-linecap="round" stroke-linejoin="round"/>
<path d="M5.13989 15.7074C5.34615 15.0209 5.7682 14.4192 6.34343 13.9916C6.91866 13.5639 7.61643 13.333 8.33323 13.3333H11.6666C12.3843 13.333 13.0829 13.5644 13.6585 13.9931C14.2342 14.4217 14.6561 15.0247 14.8616 15.7124M7.49989 8.33325C7.49989 8.99629 7.76328 9.63218 8.23213 10.101C8.70097 10.5699 9.33685 10.8333 9.99989 10.8333C10.6629 10.8333 11.2988 10.5699 11.7677 10.101C12.2365 9.63218 12.4999 8.99629 12.4999 8.33325C12.4999 7.67021 12.2365 7.03433 11.7677 6.56549C11.2988 6.09664 10.6629 5.83325 9.99989 5.83325C9.33685 5.83325 8.70097 6.09664 8.23213 6.56549C7.76328 7.03433 7.49989 7.67021 7.49989 8.33325Z" stroke="#F8F8F8" stroke-width="1.66667" stroke-linecap="round" stroke-linejoin="round"/>
</svg>
